<?xml version="1.0" encoding="UTF-8"?>
<!DOCTYPE svg PUBLIC "-//W3C//DTD SVG 1.1//EN" "http://www.w3.org/Graphics/SVG/1.1/DTD/svg11.dtd">
<!-- Creator: CorelDRAW 2021 (64-Bit) -->
<svg xmlns="http://www.w3.org/2000/svg" xml:space="preserve" width="932px" height="928px" version="1.1" style="shape-rendering:geometricPrecision; text-rendering:geometricPrecision; image-rendering:optimizeQuality; fill-rule:evenodd; clip-rule:evenodd"
viewBox="0 0 932 928.18"
 xmlns:xlink="http://www.w3.org/1999/xlink"
 xmlns:xodm="http://www.corel.com/coreldraw/odm/2003">
 <defs>
  <style type="text/css">
   <![CDATA[
    .fil1 {fill:#161616}
    .fil0 {fill:#171717}
    .fil3 {fill:#181818}
    .fil4 {fill:#191919}
    .fil6 {fill:#1A1A1A}
    .fil5 {fill:#1B1B1B}
    .fil8 {fill:#1E1E1E}
    .fil7 {fill:#A1A1A1}
    .fil9 {fill:#FAFAFA}
    .fil10 {fill:#FBFBFB}
    .fil2 {fill:#FCFCFC}
    .fil11 {fill:#003399;fill-rule:nonzero}
   ]]>
  </style>
 </defs>
 <g id="Layer_x0020_1">
  <metadata id="CorelCorpID_0Corel-Layer"/>
  <g id="_1342287399440">
   <path class="fil0" d="M769 533.49l0.37 -23.18c-15.87,-1.42 -105.36,-0.2 -129.01,-0.2 -107.96,0 -215.92,0 -323.88,0 -19.14,0 -45.75,1.49 -63.35,-1.63 -35.54,-6.32 -61.92,-26.96 -68.36,-60.71 -8.14,-42.68 10.21,-74.61 38.94,-88.74 17.39,-8.55 30.31,-11.11 52.64,-11.11 21.66,0 43.31,0 64.97,0 42.59,0 87.73,1.44 129.99,-0.09l0.04 -23.68c-47.46,0.03 -94.48,0.01 -141.5,0.01 -49.23,0 -86.24,-5.25 -123.83,17.14 -28.76,17.13 -48.9,48.79 -46.68,93.92 3.26,66.46 54.42,98.33 114.14,98.33l353.51 0c46.9,0 95.28,1.16 142.01,-0.06z"/>
   <path class="fil0" d="M709.47 495.02l0.19 -24.62c-7.58,-1.78 -234.86,-0.5 -248.91,-0.5l-186.31 0c-19.8,0 -43.63,-1.2 -62.93,0.16 3.89,11.09 28.54,20.52 41.71,23.03 18.29,3.48 43.13,2.18 63.26,2.18 21.59,0 384.59,0.87 392.99,-0.25z"/>
   <path class="fil1" d="M203.83 459.13l446.26 0.15 0.15 -24.78 -452.41 -0.18c0.46,11 2.92,16.67 6,24.81z"/>
   <path class="fil0" d="M139.01 676.5c13.83,0.12 28.11,-2.05 30.99,12.38 1.01,5.09 0.85,83.32 -0.23,87.26 -3.62,13.29 -16.02,11.2 -31.14,11.64l0.38 -111.28zm-32.21 127.21c12.17,1.11 28.87,0.18 41.53,0.18 12.91,0 27.76,1.61 37.52,-4.11 22.05,-12.94 16.38,-39.15 16.38,-68.08 0,-28.57 5.48,-55.55 -16.79,-67.68 -10.48,-5.71 -25.83,-3.66 -38.07,-3.66 -12.09,0 -29.05,-0.98 -40.77,0.2l0.2 143.15z"/>
   <path class="fil0" d="M198.4 423.72l392.03 0.02 0.52 -25.36 -386.24 0c-2.53,6.95 -7.44,17.54 -6.31,25.34z"/>
   <path class="fil0" d="M778.06 724.09l-31.51 0.06c-0.58,-9.57 -0.58,-22.26 -0.2,-31.67 0.84,-21.08 30.18,-21.1 31.93,-0.96 0.64,7.43 0.64,25.28 -0.22,32.57zm-31.69 79.53c0,-11.91 -1.54,-55.49 0.57,-63.83l30.63 0.05c2.82,8.11 -0.22,50.89 1.01,64.04l31.32 -0.17c1.09,-8.7 0.25,-80.51 0.25,-95.9 0,-17.44 1.44,-27.17 -9.35,-38.14 -10.32,-10.48 -21.12,-9.31 -38.14,-9.31 -18.22,0 -27.48,-1.64 -38.39,9.07 -10.61,10.42 -9.71,19.67 -9.69,38.38 0.03,31.96 -0.01,63.91 -0.01,96.07l31.8 -0.26z"/>
   <path class="fil0" d="M503.18 723.71c-0.41,-18.96 -4.88,-47.09 15.84,-47.23 20.97,-0.14 16.47,27.46 16.07,47.52l-31.91 -0.29zm-31.95 79.27c5.69,1.27 25.22,0.96 31.54,0.34l0.05 -63.47 32.13 -0.39c1.94,6.32 0.74,53.55 0.7,63.72l30.93 0.39 -0.11 -113.66c0.34,-10.21 -6.04,-18.04 -11.63,-22.7 -7.12,-5.93 -15.1,-6.88 -26.26,-6.86 -24.45,0.05 -40.9,-2.9 -52.08,14.49 -6.11,9.51 -5.06,15.66 -5.06,28.2 0,23.82 1.38,83.81 -0.21,99.94z"/>
   <path class="fil0" d="M867.93 767.05l0 -68.79c0,-6.71 -0.23,-10.98 3.39,-15.57 6.75,-8.57 19.07,-8.12 25.27,0.11 3.44,4.57 3.33,9.46 3.33,16.42l0 70.7c0,22.39 -31.99,26.62 -31.99,-2.87zm-31.66 8.6c1.64,15.49 14.73,27.54 31.46,28.2 17.98,0.71 40.24,2.65 52.32,-7.42 14.6,-12.16 11.45,-26.91 11.45,-48.49 0,-18.58 1.15,-41.1 -0.03,-59.19 -1.02,-15.52 -14.97,-28.08 -31.19,-28.4 -19.17,-0.38 -40.87,-2.75 -52.56,7.37 -14.66,12.67 -11.56,25.22 -11.56,48.69 0,17.08 -1.58,43.26 0.11,59.24z"/>
   <path class="fil0" d="M228.1 768.96c0.08,14.25 4.55,21.94 13.06,28.55 9.72,7.56 19.67,6.38 34.24,6.38 15.18,0 24.92,1.31 35.29,-6.34 8.52,-6.29 13.11,-15.27 13.11,-27.63 0.01,-30.22 1.09,-81.82 -0.25,-109.54l-31.33 0.14c-1.01,9.9 -0.23,72.05 -0.23,87.42 0,14.59 2.96,30.01 -7.19,37.16 -11.43,8.06 -24.72,-1.5 -24.72,-15.18 0.01,-30.57 1.14,-81.33 -0.37,-109.57l-31.59 0.32 -0.02 108.29z"/>
   <path class="fil0" d="M380.66 213.28c2.47,4.23 21.5,12.91 27.49,15 11.52,4.01 24.49,5.77 36.97,2.26 -1.29,2.65 -16.93,13.98 -27.42,34.01 -4.9,9.34 -14.84,39.25 -7.59,51.31 2.49,-2.92 5.64,-8.74 8.51,-12.31 8.43,-10.48 28.23,-23.68 40.88,-25.35 8.41,28.46 52.11,56.07 75.08,61.95 -4.82,-9.84 -41.23,-38.65 -47.43,-100.32 -3.86,-38.46 -0.23,-22.65 17.86,-54.26 6.82,-11.91 12.34,-24.37 16.8,-37.77 0.84,-2.55 1.36,-4.35 2.24,-7.2 0.97,-3.16 2.02,-4.67 0.71,-6.72 -28.82,41.51 -74.64,75.46 -144.1,79.4z"/>
   <path class="fil0" d="M212.73 388.01l318.64 -0.06 0.19 -25.07c-26.58,-1.7 -58.18,-0.2 -85.14,-0.2l-171.99 0.01c-12.89,0.11 -26.36,1.8 -37.13,6.04 -9.19,3.62 -22.32,12.16 -24.57,19.28z"/>
   <path class="fil0" d="M673.8 771.83c-4.31,2.74 -0.88,14.11 -14.51,15.68 -7.02,0.81 -21.64,0.98 -26.76,-2.14 -8.22,-5.01 -7.67,-11.86 -7.67,-23.1l0 -60.19c-0.02,-11.48 -0.6,-17.5 6.95,-22.91 5.39,-3.86 18.6,-3.16 26.63,-2.62 9.39,0.62 12.04,6.49 14.12,15.55l15.94 -0.22c0.26,-11.45 -5.58,-22.03 -12.33,-26.58 -8.65,-5.83 -21.51,-4.94 -33.9,-4.94 -13.83,0 -24.13,-1.64 -34.18,4.67 -7.92,4.97 -14,12.91 -14.98,23.75l-0.22 79.23c0.07,13.78 3.32,21.03 11.04,27.87 9.05,8.03 17.48,7.39 30.96,8.09 2.06,8.33 -3.36,9.38 -10.57,9.24l-5.63 14.59c19.98,5.22 32.31,-4.78 32.77,-23.89 21.39,-0.12 37.67,-8.19 36.84,-32.08l-14.5 0z"/>
   <path class="fil0" d="M33.01 676.56l47.56 -0.23 -0.01 -15.91 -79.7 0.17 0 143.29 79.73 -0.28 -0.07 -15.86 -47.72 -0.2 0.42 -47.59c8.31,-0.74 24.88,1.18 31.59,-0.88l-0.12 -14.8 -31.92 -0.32 0.24 -47.39z"/>
   <path class="fil0" d="M429.34 771.89c-1.22,9.34 -5.23,14.98 -14.53,15.72 -28.51,2.3 -33.23,-2.59 -33.2,-26.29 0.02,-9.88 0,-19.75 0,-29.62 0,-45.95 -6.27,-58.71 34.13,-55.12 9.14,0.81 11.68,6.73 13.82,15.56l15.47 -0.1c1.36,-14.81 -8.1,-26.71 -19.68,-30.16 -7.52,-2.24 -38.2,-2.26 -47.64,-1.39 -13.3,1.23 -23.98,12.35 -26.86,23.34 -1.89,7.21 -1.98,91.1 0.43,98.02 4.08,11.73 14.06,20.47 27.54,21.85 9.19,0.94 39.54,0.72 47.11,-1.64 12.5,-3.9 18.64,-15.25 19.36,-30.19l-15.95 0.02z"/>
   <path class="fil2" d="M138.63 787.78c15.12,-0.44 27.52,1.65 31.14,-11.64 1.08,-3.94 1.24,-82.17 0.23,-87.26 -2.88,-14.43 -17.16,-12.26 -30.99,-12.38l-0.38 111.28z"/>
   <path class="fil2" d="M867.93 767.05c0,29.49 31.99,25.26 31.99,2.87l0 -70.7c0,-6.96 0.11,-11.85 -3.33,-16.42 -6.2,-8.23 -18.52,-8.68 -25.27,-0.11 -3.62,4.59 -3.39,8.86 -3.39,15.57l0 68.79z"/>
   <path class="fil0" d="M158.44 890.8c11.81,-1.34 32.58,-2.06 32.61,11.96 0.03,14.57 -20.38,12.38 -32.85,11.71l0.24 -23.67zm-0.23 -34.55c11.13,-1.72 29.28,-2.19 29.21,11.12 -0.07,13.46 -18.13,12.98 -29.29,11.43l0.08 -22.55zm32.25 27.36c5.46,-4.34 9.88,-6.86 10.73,-16.2 0.8,-8.79 -2.79,-15.22 -8.13,-19.02 -8.71,-6.22 -34.99,-5.54 -48.49,-4.48l-0.02 82.73c20.38,3.1 67.26,3.98 59.82,-28.43 -2.37,-10.32 -8.76,-9.55 -13.91,-14.6z"/>
   <path class="fil0" d="M259.73 863.27c2.69,2.57 2.71,4.68 3.92,8.19 0.97,2.83 1.81,4.94 2.82,7.8 1.51,4.27 4.36,10.86 5.03,15.65l-22.94 -0.32 11.17 -31.32zm-22.42 63.52c1.07,-3.58 2.59,-7.44 3.93,-11.42 1.82,-5.43 0.93,-7.64 6.32,-8.11 4.97,-0.44 24.18,-0.27 28.79,0.52 2.86,5.53 4.09,13.85 7.18,19.29l13.48 0.06c0.27,-3.87 -12.27,-36.06 -14.79,-42.81l-15.42 -41.4 -13.08 0.07 -30.27 84.02 13.86 -0.22z"/>
   <path class="fil0" d="M548.52 894.97c0.29,-4.36 8.8,-27.32 10.83,-32.16 1.98,2.28 11.02,27.68 11.46,32.12l-22.29 0.04zm-4.94 12.39l29.9 -0.03c3.97,0 7.55,14.44 9.07,19.71l14.62 -0.17 -30.76 -83.98 -12.99 0.16 -22.99 62.31c-2.24,5.98 -6.33,15.46 -7.29,21.74l13.47 -0.17 6.97 -19.57z"/>
   <path class="fil0" d="M398.65 894.92c0.48,-4.66 9.23,-29.27 11.71,-32.08l10.88 32.08 -22.59 0zm-25.34 32.1c20.54,0.04 10.7,2.21 20.56,-19.36 3.74,-0.48 26.43,-0.89 29.69,-0.33 4.18,0.72 4.02,3.97 5.66,8.83 1.17,3.49 2.48,7.35 3.61,10.78l14.18 0.11 -30.44 -84.13 -12.82 0.1c-1.54,2.77 -28.86,75.81 -30.44,84z"/>
   <path class="fil0" d="M706.41 862.62c2.09,-3.27 5.61,-6.35 6.82,-10.54 -7.75,-9.69 -29.83,-12.65 -41.21,-5.62 -11.67,7.22 -16.03,25.9 -3.72,35.97 10.15,8.32 32.45,10.84 32.7,22.2 0.19,8.98 -8.56,11.8 -16.66,10.67 -9.91,-1.39 -12.36,-6.68 -18.52,-9.29l-7.6 10.09c7.34,8.98 26.92,15.73 41.78,9.89 6.17,-2.42 11.48,-6.9 13.78,-13.86 10.06,-30.42 -30.58,-31.9 -37.05,-41.93 -5.4,-8.4 2.38,-14.98 10.45,-15.09 9.87,-0.12 12.62,5.09 19.23,7.51z"/>
   <path class="fil0" d="M730.17 644.35c2.49,-4.89 1.32,-8.08 5.66,-12.08 12.97,-11.96 23.94,7.11 35.82,11.11 9.7,3.26 21.5,-0.24 27.74,-5.86 5.77,-5.2 10.37,-15.23 10.37,-25.06l-15.59 -0.02c-1.6,9.56 -7.13,19.23 -19.47,15.41 -6.26,-1.93 -11.9,-11.18 -21.96,-14.21 -20.43,-6.16 -39.13,11.66 -37.72,30.82l15.15 -0.11z"/>
   <path class="fil0" d="M306.73 856.43l21.67 0.77c0.43,12.12 -1.45,62.96 0.83,69.91l12.98 -0.09 0.08 -70.4 21.77 -0.2 -0.19 -12.66 -57.27 0.46 0.13 12.21z"/>
   <path class="fil0" d="M491.82 856.63c23.86,-0.59 23.07,4.52 21.98,-12.77l-57.73 0.03 0.27 12.62 21.7 0.24c0.13,22.29 -0.69,49.13 0.4,70.34l13.22 -0.21 0.16 -70.25z"/>
   <path class="fil0" d="M440.18 143.32c-28.75,10.88 -12.15,49.74 13.96,40.92 10.9,-3.69 17.59,-15.31 13.46,-27.84 -3,-9.12 -14.87,-17.83 -27.42,-13.08z"/>
   <path class="fil2" d="M778.06 724.09c0.86,-7.29 0.86,-25.14 0.22,-32.57 -1.75,-20.14 -31.09,-20.12 -31.93,0.96 -0.38,9.41 -0.38,22.1 0.2,31.67l31.51 -0.06z"/>
   <path class="fil2" d="M503.18 723.71l31.91 0.29c0.4,-20.06 4.9,-47.66 -16.07,-47.52 -20.72,0.14 -16.25,28.27 -15.84,47.23z"/>
   <path class="fil2" d="M18.64 902.33c9.35,-0.05 16.08,1.01 22.64,-4.4 9.34,-7.69 18.65,-44.21 -22.96,-41.88 -0.6,6.55 -0.92,41.28 0.32,46.28z"/>
   <polygon class="fil3" points="620.9,927.09 634.41,926.94 634.24,843.77 620.58,843.94 "/>
   <path class="fil3" d="M18.64 902.33c-1.24,-5 -0.92,-39.73 -0.32,-46.28 41.61,-2.33 32.3,34.19 22.96,41.88 -6.56,5.41 -13.29,4.35 -22.64,4.4zm-6.47 5.61c56.68,5.58 47.78,-42.69 31.5,-53.44 -8.22,-5.43 -19.56,-4.75 -31.93,-4.13l0.43 57.57z"/>
   <path class="fil4" d="M71.13 856.08l28.91 -1.13 -0.15 -3.82c-4,-1.97 -12.19,-0.91 -17.49,-0.91 -5.72,0 -12.14,-0.38 -17.73,0.31l0.16 57.58 35.36 -0.08 0.16 -5.64 -29.23 -0.29 0.1 -20.13c7.49,-0.75 21.91,0.84 25.96,-1.22l-0.11 -3.83c-0.24,-0.12 -0.57,-0.22 -0.76,-0.28l-25.22 -0.87 0.04 -19.69z"/>
   <path class="fil2" d="M856.07 628.87l4.04 0.23 2.87 -0.04c12.03,0 21.76,-6 19.18,-19.54 -2.36,-12.37 -13.15,-13.02 -26.13,-12.62l0.04 31.97z"/>
   <path class="fil2" d="M158.2 914.47c12.47,0.67 32.88,2.86 32.85,-11.71 -0.03,-14.02 -20.8,-13.3 -32.61,-11.96l-0.24 23.67z"/>
   <path class="fil2" d="M158.13 878.8c11.16,1.55 29.22,2.03 29.29,-11.43 0.07,-13.31 -18.08,-12.84 -29.21,-11.12l-0.08 22.55z"/>
   <path class="fil4" d="M380.49 633.37c2.93,-5.74 0.46,-22.88 0.99,-30.71 4.18,2.68 9.7,14.82 14.3,18.93 5.47,-3.72 8.91,-14.42 14.44,-18.92 0.51,5.71 0.28,11.51 0.27,17.25 -0.01,14.75 -1.61,13.12 3.44,13.62l0.84 -40.24c-4.71,0.14 -4.42,0.34 -6.61,3.63 -2.23,3.39 -10.28,15.97 -12.38,17.32 -9.31,-9.73 -9.78,-21.22 -18.67,-20.77 -0.68,6.97 -1.63,35.29 0.51,39.95l2.87 -0.06z"/>
   <path class="fil4" d="M470.3 633.27c2.18,-4.82 0.71,-24.18 0.67,-30.95 2.89,1.55 11.46,12.96 13.99,16.31 5.49,7.25 9.52,14.58 15.19,14.86 0.39,-6.87 0.13,-14.28 0.13,-21.22 0,-3.51 -0.02,-7.01 0.06,-10.53 0,-0.37 -0.02,-4.81 -0.03,-4.84 -0.71,-3.28 0.46,-2.01 -2.3,-3.43 -2.12,1.26 -2.3,0.97 -2.21,7.29 0.03,2.57 0.08,5.11 0.08,7.69 0,5.21 0.3,10.67 -0.2,15.82l-20.19 -24.83c-2.43,-3.2 -3.09,-6.2 -8.7,-5.95 -0.6,3.22 -1.85,35.96 0.65,40.01l2.86 -0.23z"/>
   <path class="fil4" d="M856.03 596.9c12.98,-0.4 23.77,0.25 26.13,12.62 2.58,13.54 -7.15,19.54 -19.18,19.54l-2.87 0.04 -4.04 -0.23 -0.04 -31.97zm-4.72 36.47c18.14,1.2 35.65,-0.8 36.04,-20.13 0.43,-21.5 -21.16,-21.74 -36.08,-20.51l0.04 40.64z"/>
   <path class="fil4" d="M117.89 598.06c7.99,-1.3 23.76,-2.35 22.64,8.34 -0.89,8.57 -14.03,8.53 -22.41,7.25l-0.23 -15.59zm17.62 19.94c0.99,-1.04 0.29,-0.44 1.79,-1.47 0.18,-0.13 0.43,-0.28 0.62,-0.41 0.18,-0.12 0.43,-0.24 0.62,-0.35 2.37,-1.42 4.78,-2.04 6.11,-6.1 6.35,-19.41 -22.18,-16.41 -30.55,-16.32 -1.04,6.03 -0.33,23.09 -0.48,31.36 -0.15,7.96 -0.28,7.7 2.22,8.84 2.68,-1.17 1.55,-0.08 2.25,-3.08l-0.17 -12.41 11.73 -0.08c6.83,10.16 9.32,15.34 16.37,15.64 -1.83,-5.61 -7.58,-11.04 -10.51,-15.62z"/>
   <path class="fil4" d="M268.24 597.66c7.62,-0.07 23.21,-2.59 22.13,8.69 -0.89,9.21 -13.25,7.57 -22.13,7.66l0 -16.35zm17.07 19.39c4.37,-1.9 7.49,-3.03 9.02,-7.05 1.76,-4.63 0.67,-9.94 -2.71,-13.03 -5.88,-5.36 -18.42,-3.67 -27.55,-3.61 -0.98,5.97 -0.32,23.19 -0.45,31.35 -0.14,8.57 -0.19,7.79 2.22,8.83 2.69,-1.18 1.53,-0.07 2.24,-3.07l0 -12.43 11.14 0.16c4.89,1.95 6.32,15.14 16.64,15.37 -2.16,-6.44 -9.37,-10.96 -10.55,-16.52z"/>
   <path class="fil5" d="M900.02 596.81c6.48,-0.48 20.09,1.19 25.07,-0.77l0.03 -2.88c-3.24,-1.62 -24.12,-0.76 -29.53,-0.61l0.05 40.8 29.63 -1.01c-0.82,-6.73 -9.61,-1.93 -25.16,-3.57l0.05 -13.73c6.1,-0.38 17.21,1.19 22.07,-0.86 0.01,-6.31 -6.31,-3.25 -22.06,-3.74l-0.16 -9.63 0.01 -4z"/>
   <path class="fil4" d="M157.7 597.72l24.49 -0.44 -0.08 -3.88 -28.93 0.15 0.05 39.73c5.25,0.53 10.81,0.26 16.12,0.27 6.96,0.01 13.15,1.48 13.1,-2.17 -1.05,-2.9 0.38,-1.9 -4.38,-2.2l-20.31 0 0.36 -13.77c3.73,-0.18 7.49,-0.14 11.23,-0.09 12.84,0.18 8.67,0.43 10.16,-2.09 -1.84,-3.19 2.26,-1.49 -4.33,-2.21l-17.33 0.08 -0.15 -13.38z"/>
   <path class="fil4" d="M326.34 618.57c0.7,-3.62 6.29,-15.69 8.29,-18.74l0.87 1.01c0.1,0.14 0.3,0.39 0.4,0.55l7.23 17.29 -16.79 -0.11zm-11.33 15.05c5.12,-0.38 4.47,-0.11 6.2,-4.2 0.92,-2.18 1.53,-4.19 2.91,-6.44l21.02 0.06c4.48,5.29 1.4,10.38 9.76,10.45 -0.97,-4.72 -7.42,-17.51 -9.59,-22.3 -6,-13.29 -6.04,-18.4 -12.59,-17.71 -3.54,6.27 -16.33,33.93 -17.71,40.14z"/>
   <path class="fil6" d="M40.98 597.67l24.64 -0.4 -0.15 -3.87 -28.86 0.11 -0.01 39.73 26.65 0.11c2.82,-0.93 1.15,0.59 2.48,-1.97 -1.59,-2.83 0.38,-1.96 -5.2,-2.23l-19.38 0.05 0.31 -13.84 18.1 -0.01c4.42,-0.61 2.52,0.42 3.37,-2.12 -0.97,-2.99 0.38,-1.89 -4.28,-2.19l-17.45 0.22 -0.22 -13.59z"/>
   <path class="fil4" d="M621.17 618.69c0.46,-4.23 5.99,-15.47 8.35,-19.47 2.31,3.86 8.02,15.37 8.09,19.51l-16.44 -0.04zm-11.64 14.78c5.78,-0.02 4.2,1.09 9.13,-10.52l21.7 0.21c4.94,8.41 1.28,10.19 9.09,10.39 -1.72,-8.29 -13.51,-31.3 -17.6,-40.32 -6.83,-0.1 -7.06,5.2 -12.91,18.67 -2.73,6.28 -7.73,15.36 -9.41,21.57z"/>
   <path class="fil3" d="M228.55 618.74c0.51,-4.15 2.17,-6.82 3.82,-10.34 1.62,-3.42 2.53,-6.45 5.08,-8.77l8.03 19.04 -16.93 0.07zm-11.61 14.73c4.73,0.01 4.42,0.26 6.11,-3.74 0.87,-2.07 1.84,-4.39 2.9,-6.62l21.62 -0.17c5.41,11.06 2.24,10.23 9.33,10.72l-16.16 -37.25c-5.09,-9.07 -8.42,2.26 -10.02,5.63l-13.78 31.43z"/>
   <path class="fil6" d="M584.68 597.57c8.54,0.22 21.16,-1.56 20.87,8.92 -0.26,9.69 -11.31,8.78 -20.8,8.73l-0.07 -17.65zm0.02 21.98c12.95,-0.12 27.62,-0.28 25.27,-15.85 -1.82,-12.06 -18.07,-11.37 -29.61,-10.16l-0.12 18.73c0.05,16.46 -2.42,21.15 3.75,21.09 1.47,-3.43 0.71,-9.52 0.71,-13.81z"/>
   <path class="fil4" d="M24.06 620.87c1.05,7.53 -5.01,9.96 -12.27,8.67 -4.44,-0.78 -13.55,-8.66 -11.49,-1.49 1.71,5.94 24.85,10.22 28.25,-1.77 4.51,-15.91 -15.2,-13.22 -21.17,-18.36 -4.89,-4.19 -1.28,-10.03 4.53,-10.86 8.1,-1.16 10.45,4.61 14.95,2.72 0.56,-5.37 1.57,-1.4 -1.49,-4 -0.28,-0.24 -2.94,-1.43 -3.23,-1.53 -7.64,-2.8 -20.48,-2.03 -21.39,8.49 -1.32,15.22 17.27,8.86 23.31,18.13z"/>
   <path class="fil4" d="M426.35 593.47c-1.45,0.86 -2.22,0.35 -2.26,6.31 -0.13,15.91 -2.74,34.14 16.57,34.29 19.14,0.15 16.67,-17.4 16.7,-27.53 0.03,-14.08 1.19,-11.22 -2.35,-13.1 -8.3,4.87 8.01,36.78 -14.33,36.39 -17.27,-0.3 -10.63,-23.13 -11.79,-32 -0.92,-7.03 1.09,-2.54 -2.54,-4.36z"/>
   <path class="fil4" d="M558.3 625.57c-4.5,-1.79 -4.19,1.79 -10.13,3.6 -13.18,4 -23.28,-8.68 -19.68,-20.74 6.12,-20.51 26.63,-6.79 27.75,-7.03 5.48,-1.21 -0.21,-5.3 -3.33,-6.73 -17.1,-7.83 -33.76,6.86 -29.21,24.48 3.24,12.56 15.89,17.76 27.3,13.68 8.02,-2.87 7.23,-4.88 7.3,-7.26z"/>
   <path class="fil4" d="M107.23 626.47c-4.51,-3.48 -3.24,-1.25 -8.11,1.56 -18.5,10.64 -33.14,-20.42 -14.25,-29.5 9.71,-4.67 13.8,1.19 19.68,3.48l2.42 -2.38c-3.8,-10.01 -36.14,-11.72 -35.55,14.58 0.52,23.12 30.22,24.65 35.81,12.26z"/>
   <path class="fil7" d="M471.23 802.98c1.08,1.37 -1.33,1.24 3.77,1.8l28.87 -0.7 0.11 -63.61 30.54 0.25 0.11 63.14c4.81,1.65 27.57,1.44 32.89,0.21 0.45,-9.83 1.12,-112.71 -1.05,-114.16l0.11 113.66 -30.93 -0.39c0.04,-10.17 1.24,-57.4 -0.7,-63.72l-32.13 0.39 -0.05 63.47c-6.32,0.62 -25.85,0.93 -31.54,-0.34z"/>
   <path class="fil2" d="M548.52 894.97l22.29 -0.04c-0.44,-4.44 -9.48,-29.84 -11.46,-32.12 -2.03,4.84 -10.54,27.8 -10.83,32.16z"/>
   <path class="fil2" d="M398.65 894.92l22.59 0 -10.88 -32.08c-2.48,2.81 -11.23,27.42 -11.71,32.08z"/>
   <path class="fil2" d="M248.56 894.59l22.94 0.32c-0.67,-4.79 -3.52,-11.38 -5.03,-15.65 -1.01,-2.86 -1.85,-4.97 -2.82,-7.8 -1.21,-3.51 -1.23,-5.62 -3.92,-8.19l-11.17 31.32z"/>
   <path class="fil2" d="M118.12 613.65c8.38,1.28 21.52,1.32 22.41,-7.25 1.12,-10.69 -14.65,-9.64 -22.64,-8.34l0.23 15.59z"/>
   <path class="fil2" d="M268.24 614.01c8.88,-0.09 21.24,1.55 22.13,-7.66 1.08,-11.28 -14.51,-8.76 -22.13,-8.69l0 16.35z"/>
   <path class="fil2" d="M584.75 615.22c9.49,0.05 20.54,0.96 20.8,-8.73 0.29,-10.48 -12.33,-8.7 -20.87,-8.92l0.07 17.65z"/>
   <path class="fil4" d="M203.74 633.51c3.35,-4.61 -0.49,-27.4 1.72,-35.84 2.42,-0.11 4.62,0.12 6.93,0.1 6.58,-0.06 5.47,-1.43 5.93,-2.69 -1.11,-1.79 1.16,-1.92 -6.87,-1.82l-24.33 0.47 0.01 3.81 13.27 0.04 -0.17 30.09c-0.08,5.48 -1.01,5.43 3.51,5.84z"/>
   <path class="fil4" d="M658.52 593.46c-3.48,1.87 -1.57,-2.49 -2.44,4.37l0.26 35.61c4.87,0.17 9.73,0.09 14.6,0.11 12.39,0.06 10.21,1.21 12.19,-2.17 -1.82,-2.92 0.29,-1.98 -5.41,-2.23 -4.96,-0.22 -10.54,0.66 -16.88,-0.14l0 -28.25c0.11,-7.09 -0.67,-6.4 -2.32,-7.3z"/>
   <path class="fil3" d="M303.6 593.59c-0.56,6.51 -1.31,35.33 0.45,39.76l2.87 0.19c2.53,-3.61 1.28,-37.41 0.83,-40.26l-4.15 0.31z"/>
   <path class="fil8" d="M565.63 593.9c-0.63,7.03 -0.18,15.91 -0.18,23.15 0,15.6 -1.73,16.88 4.9,16.49l-0.2 -40.16 -4.52 0.52z"/>
   <path class="fil9" d="M621.17 618.69l16.44 0.04c-0.07,-4.14 -5.78,-15.65 -8.09,-19.51 -2.36,4 -7.89,15.24 -8.35,19.47z"/>
   <path class="fil10" d="M228.55 618.74l16.93 -0.07 -8.03 -19.04c-2.55,2.32 -3.46,5.35 -5.08,8.77 -1.65,3.52 -3.31,6.19 -3.82,10.34z"/>
   <path class="fil4" d="M510.81 632.03l3.44 1.27c1.76,-4.18 1.07,-33.42 0.47,-39.82l-3.96 0.03 0.05 38.52z"/>
   <path class="fil10" d="M326.34 618.57l16.79 0.11 -7.23 -17.29c-0.1,-0.16 -0.3,-0.41 -0.4,-0.55l-0.87 -1.01c-2,3.05 -7.59,15.12 -8.29,18.74z"/>
  </g>
  <path class="fil11" d="M44.49 36.47l-14.98 0 -2.16 7.05 -13.5 0 16.11 -42.8 14.48 0 16.04 42.8 -13.84 0 -2.15 -7.05zm-2.8 -9.27l-4.67 -15.38 -4.69 15.38 9.36 0z"/>
  <path id="_1" class="fil11" d="M64.6 0.72l22 0c4.79,0 8.38,1.13 10.77,3.42 2.38,2.28 3.58,5.53 3.58,9.74 0,4.33 -1.31,7.71 -3.91,10.14 -2.6,2.45 -6.57,3.66 -11.91,3.66l-7.26 0 0 15.84 -13.27 0 0 -42.8zm13.27 18.29l3.26 0c2.57,0 4.38,-0.45 5.41,-1.33 1.04,-0.89 1.56,-2.03 1.56,-3.41 0,-1.35 -0.45,-2.48 -1.36,-3.42 -0.9,-0.94 -2.59,-1.4 -5.08,-1.4l-3.79 0 0 9.56z"/>
  <path id="_2" class="fil11" d="M106.16 22.15c0,-6.98 1.94,-12.42 5.84,-16.31 3.89,-3.9 9.32,-5.84 16.27,-5.84 7.13,0 12.62,1.91 16.47,5.73 3.86,3.83 5.78,9.19 5.78,16.07 0,5 -0.84,9.1 -2.52,12.3 -1.68,3.2 -4.13,5.69 -7.3,7.47 -3.19,1.79 -7.16,2.67 -11.91,2.67 -4.82,0 -8.82,-0.77 -11.99,-2.3 -3.16,-1.54 -5.73,-3.98 -7.69,-7.3 -1.96,-3.32 -2.95,-7.49 -2.95,-12.49zm13.21 0.03c0,4.32 0.81,7.42 2.41,9.31 1.62,1.88 3.81,2.83 6.58,2.83 2.84,0 5.05,-0.93 6.61,-2.77 1.56,-1.86 2.34,-5.16 2.34,-9.96 0,-4.02 -0.82,-6.96 -2.44,-8.82 -1.64,-1.86 -3.84,-2.79 -6.63,-2.79 -2.67,0 -4.82,0.95 -6.44,2.83 -1.62,1.89 -2.43,5.02 -2.43,9.37z"/>
  <polygon id="_3" class="fil11" points="158.17,0.72 171.45,0.72 171.45,43.52 158.17,43.52 "/>
  <path id="_4" class="fil11" d="M179.23 22.15c0,-6.98 1.94,-12.42 5.84,-16.31 3.89,-3.9 9.31,-5.84 16.27,-5.84 7.12,0 12.61,1.91 16.47,5.73 3.86,3.83 5.78,9.19 5.78,16.07 0,5 -0.84,9.1 -2.52,12.3 -1.69,3.2 -4.13,5.69 -7.31,7.47 -3.18,1.79 -7.15,2.67 -11.9,2.67 -4.83,0 -8.82,-0.77 -11.99,-2.3 -3.16,-1.54 -5.73,-3.98 -7.69,-7.3 -1.97,-3.32 -2.95,-7.49 -2.95,-12.49zm13.21 0.03c0,4.32 0.81,7.42 2.41,9.31 1.62,1.88 3.81,2.83 6.58,2.83 2.84,0 5.05,-0.93 6.61,-2.77 1.56,-1.86 2.34,-5.16 2.34,-9.96 0,-4.02 -0.82,-6.96 -2.45,-8.82 -1.63,-1.86 -3.83,-2.79 -6.62,-2.79 -2.67,0 -4.82,0.95 -6.44,2.83 -1.62,1.89 -2.43,5.02 -2.43,9.37z"/>
  <path id="_5" class="fil11" d="M229.99 12.5l12.67 0 0 11.89 -12.67 0 0 -11.89zm0 19.13l12.67 0 0 11.89 -12.67 0 0 -11.89z"/>
 </g>
</svg>
