<?xml version="1.0" encoding="UTF-8"?>
<!DOCTYPE svg PUBLIC "-//W3C//DTD SVG 1.1//EN" "http://www.w3.org/Graphics/SVG/1.1/DTD/svg11.dtd">
<!-- Creator: CorelDRAW 2021 (64-Bit) -->
<svg xmlns="http://www.w3.org/2000/svg" xml:space="preserve" width="200px" height="100px" version="1.1" style="shape-rendering:geometricPrecision; text-rendering:geometricPrecision; image-rendering:optimizeQuality; fill-rule:evenodd; clip-rule:evenodd"
viewBox="0 0 200 100"
 xmlns:xlink="http://www.w3.org/1999/xlink"
 xmlns:xodm="http://www.corel.com/coreldraw/odm/2003">
 <defs>
  <style type="text/css">
   <![CDATA[
    .str0 {stroke:#520707;stroke-width:0.76;stroke-linecap:round;stroke-linejoin:round;stroke-miterlimit:10}
    .fil3 {fill:none;fill-rule:nonzero}
    .fil1 {fill:#3BD4AF;fill-rule:nonzero}
    .fil4 {fill:#520707;fill-rule:nonzero}
    .fil5 {fill:#FD6E85;fill-rule:nonzero}
    .fil0 {fill:#FFBCC1;fill-rule:nonzero}
    .fil2 {fill:white;fill-rule:nonzero}
   ]]>
  </style>
 </defs>
 <g id="Layer_x0020_1">
  <metadata id="CorelCorpID_0Corel-Layer"/>
  <polygon class="fil0" points="200,100 0,100 0,0 200,0 "/>
  <g id="_2685840218736">
   <polygon class="fil1" points="16.29,79.16 16.29,84.41 51.63,84.41 51.63,71.69 "/>
   <path class="fil2" d="M58.16 26.01c-15.01,-17.13 -31.64,-5.28 -36.35,0 0,0 -2.96,3.2 -5.93,2.39 -3.71,-1.01 -5.92,0.14 -6.59,2.83 -0.68,2.69 2.15,4.85 2.15,4.85 0,0 -7.75,9.83 -2.26,22.35 0,0 4.42,7.13 13.17,7.81l-0.07 11.65 26.73 -5.6 0.18 -6.39c1.01,0.39 2.1,0.61 3.25,0.61 4.94,0 8.95,-4.01 8.95,-8.96 0,-2.05 -0.69,-3.93 -1.84,-5.44 4.14,-7.02 6.76,-16.8 -1.39,-26.1z"/>
   <polygon class="fil3 str0" points="16.29,79.16 16.29,84.41 51.63,84.41 51.63,71.69 "/>
   <path class="fil3 str0" d="M58.16 26.01c-15.01,-17.13 -31.64,-5.28 -36.35,0 0,0 -2.96,3.2 -5.93,2.39 -3.71,-1.01 -5.92,0.14 -6.59,2.83 -0.68,2.69 2.15,4.85 2.15,4.85 0,0 -7.75,9.83 -2.26,22.35 0,0 4.42,7.13 13.17,7.81"/>
   <polyline class="fil3 str0" points="22.35,66.24 22.28,77.89 49.01,72.29 49.19,65.9 "/>
   <path class="fil3 str0" d="M49.19 65.9c1.01,0.39 2.1,0.61 3.25,0.61 4.94,0 8.95,-4.01 8.95,-8.96 0,-2.05 -0.69,-3.93 -1.84,-5.44 4.14,-7.02 6.76,-16.8 -1.39,-26.1"/>
   <path class="fil3 str0" d="M11.6 44.94c0,0 3.61,1.72 7.55,0.75"/>
   <path class="fil3 str0" d="M22.35 66.24c0,0 6.16,0.56 13,-2.97"/>
   <line class="fil3 str0" x1="11.44" y1="36.08" x2="13.24" y2= "37.34" />
   <path class="fil3 str0" d="M51.43 48.65c0.34,-0.03 0.68,-0.05 1.03,-0.05 4.93,0 8.92,3.99 8.92,8.92 0,4.93 -3.99,8.92 -8.92,8.92 -3.63,0 -6.75,-2.17 -8.15,-5.28"/>
   <path class="fil3 str0" d="M48.64 55.3c0.76,-1.31 2.19,-2.2 3.82,-2.2 2.44,0 4.42,1.98 4.42,4.42 0,1.49 -0.74,2.8 -1.87,3.6"/>
   <path class="fil3 str0" d="M25.57 28.45c0,0 0.94,4.62 5.91,5.05"/>
   <path class="fil4" d="M44.65 62.24c0,0 2.85,5.8 4.45,6.73l0.09 -3.07c0,0 -4.21,-2.59 -4.54,-3.66z"/>
   <path class="fil4" d="M34.78 63.78c0,0 -10.35,5.3 -12.46,8.82l0.03 -6.36c0,0 8.17,-0.14 12.43,-2.46z"/>
   <path class="fil4" d="M10.18 38.02c0,0 0.63,-0.51 1.42,-0.64 0.8,-0.14 1.79,0.07 1.79,0.07l-1.95 -1.37 -1.26 1.94z"/>
   <path class="fil5" d="M52.53 45.07c0.92,0.95 2.44,1 3.39,0.09 0,-0.01 0.01,-0.01 0.02,-0.02 1.33,-1.3 1.64,-3.26 0.89,-4.86 1.52,-1.65 1.51,-4.23 -0.08,-5.86 -0.15,-0.15 -0.31,-0.3 -0.48,-0.42 1.22,-1.65 1.11,-3.99 -0.37,-5.51 -0.87,-0.9 -2.04,-1.33 -3.2,-1.29 0.07,-1.16 -0.32,-2.34 -1.2,-3.24 -1.24,-1.29 -3.1,-1.61 -4.66,-0.98 -0.23,-0.46 -0.54,-0.89 -0.95,-1.26 -1.52,-1.39 -3.86,-1.48 -5.48,-0.21 -0.37,0.28 -0.67,0.61 -0.92,0.97 -1.55,-0.72 -3.47,-0.46 -4.77,0.81 -0.01,0 -0.01,0.01 -0.02,0.02 -0.94,0.92 -0.93,2.44 -0.01,3.39l17.84 18.37z"/>
   <path class="fil2" d="M51.97 30.35c-0.27,0.26 -0.71,0.26 -0.98,-0.02 -0.27,-0.27 -0.26,-0.71 0.01,-0.98 0.28,-0.27 0.72,-0.26 0.98,0.01 0.27,0.28 0.26,0.72 -0.01,0.99z"/>
   <path class="fil2" d="M56.19 38.81c-0.27,0.27 -0.71,0.26 -0.98,-0.01 -0.27,-0.27 -0.26,-0.71 0.01,-0.98 0.28,-0.27 0.72,-0.26 0.98,0.01 0.27,0.28 0.27,0.72 -0.01,0.98z"/>
   <path class="fil2" d="M39.57 25.07c-0.28,0.27 -0.72,0.26 -0.98,-0.01 -0.27,-0.28 -0.26,-0.72 0.01,-0.98 0.28,-0.27 0.72,-0.27 0.98,0.01 0.27,0.27 0.26,0.71 -0.01,0.98z"/>
   <g>
    <path class="fil3 str0" d="M52.53 45.07c0.92,0.95 2.44,1 3.39,0.09 0,-0.01 0.01,-0.01 0.02,-0.02 1.33,-1.3 1.64,-3.26 0.89,-4.86 1.52,-1.65 1.51,-4.23 -0.08,-5.86 -0.15,-0.15 -0.31,-0.3 -0.48,-0.42 1.22,-1.65 1.11,-3.99 -0.37,-5.51 -0.87,-0.9 -2.04,-1.33 -3.2,-1.29 0.07,-1.16 -0.32,-2.34 -1.2,-3.24 -1.24,-1.29 -3.1,-1.61 -4.66,-0.98 -0.23,-0.46 -0.54,-0.89 -0.95,-1.26 -1.52,-1.39 -3.86,-1.48 -5.48,-0.21 -0.37,0.28 -0.67,0.61 -0.92,0.97 -1.55,-0.72 -3.47,-0.46 -4.77,0.81 -0.01,0 -0.01,0.01 -0.02,0.02 -0.94,0.92 -0.93,2.44 -0.01,3.39"/>
    <line class="fil3 str0" x1="34.69" y1="26.7" x2="52.53" y2= "45.07" />
    <path class="fil3 str0" d="M48.34 27.28c1.19,-1.19 3.12,-1.2 4.3,-0.02 1.19,1.19 1.18,3.11 -0.01,4.3"/>
    <path class="fil3 str0" d="M47.2 33.56c1.19,-1.19 3.12,-1.2 4.3,-0.01 1.18,1.18 1.18,3.11 -0.01,4.3"/>
    <path class="fil3 str0" d="M43.44 31.35c1.18,1.19 1.18,3.11 -0.01,4.3"/>
    <path class="fil3 str0" d="M34.78 23.23c1.52,-1.53 3.99,-1.54 5.51,-0.02 0.66,0.67 1.04,1.52 1.11,2.4"/>
    <path class="fil3 str0" d="M52 34.1c0.34,-0.22 0.72,-0.4 1.13,-0.51 2.09,-0.56 4.23,0.67 4.78,2.74 0.56,2.07 -0.68,4.2 -2.77,4.76 -0.78,0.21 -1.57,0.17 -2.28,-0.07"/>
   </g>
   <path class="fil1" d="M82.79 14.74l-1.95 0 0 -1.94c0,-0.71 -0.57,-1.29 -1.28,-1.29 -0.7,0 -1.28,0.58 -1.28,1.29l0 1.94 -1.95 0c-0.7,0 -1.28,0.58 -1.28,1.29 0,0.7 0.58,1.28 1.28,1.28l1.95 0 0 1.94c0,0.71 0.58,1.29 1.28,1.29 0.71,0 1.28,-0.58 1.28,-1.29l0 -1.94 1.95 0c0.71,0 1.28,-0.58 1.28,-1.28 0,-0.71 -0.57,-1.29 -1.28,-1.29z"/>
   <polyline class="fil3 str0" points="82.79,14.74 80.84,14.74 80.84,12.8 "/>
   <path class="fil3 str0" d="M80.84 12.8c0,-0.71 -0.57,-1.29 -1.28,-1.29"/>
   <path class="fil3 str0" d="M79.56 11.51c-0.7,0 -1.28,0.58 -1.28,1.29"/>
   <polyline class="fil3 str0" points="78.28,12.8 78.28,14.74 76.33,14.74 "/>
   <path class="fil3 str0" d="M76.33 14.74c-0.7,0 -1.28,0.58 -1.28,1.29 0,0.7 0.58,1.28 1.28,1.28"/>
   <polyline class="fil3 str0" points="76.33,17.31 78.28,17.31 78.28,19.25 "/>
   <path class="fil3 str0" d="M78.28 19.25c0,0.71 0.58,1.29 1.28,1.29"/>
   <path class="fil3 str0" d="M79.56 20.54c0.71,0 1.28,-0.58 1.28,-1.29"/>
   <polyline class="fil3 str0" points="80.84,19.25 80.84,17.31 82.79,17.31 "/>
   <path class="fil3 str0" d="M82.79 17.31c0.71,0 1.28,-0.58 1.28,-1.28 0,-0.71 -0.57,-1.29 -1.28,-1.29"/>
   <path class="fil1" d="M69.43 23.06l-1.39 0 0 -1.38c0,-0.5 -0.41,-0.91 -0.91,-0.91 -0.5,0 -0.91,0.41 -0.91,0.91l0 1.38 -1.39 0c-0.5,0 -0.91,0.42 -0.91,0.92 0,0.5 0.41,0.91 0.91,0.91l1.39 0 0 1.39c0,0.5 0.41,0.91 0.91,0.91 0.5,0 0.91,-0.41 0.91,-0.91l0 -1.39 1.39 0c0.5,0 0.91,-0.41 0.91,-0.91 0,-0.5 -0.41,-0.92 -0.91,-0.92z"/>
   <polyline class="fil3 str0" points="69.43,23.06 68.04,23.06 68.04,21.68 "/>
   <path class="fil3 str0" d="M68.04 21.68c0,-0.5 -0.41,-0.91 -0.91,-0.91"/>
   <path class="fil3 str0" d="M67.13 20.77c-0.5,0 -0.91,0.41 -0.91,0.91"/>
   <polyline class="fil3 str0" points="66.22,21.68 66.22,23.06 64.83,23.06 "/>
   <path class="fil3 str0" d="M64.83 23.06c-0.5,0 -0.91,0.42 -0.91,0.92 0,0.5 0.41,0.91 0.91,0.91"/>
   <polyline class="fil3 str0" points="64.83,24.89 66.22,24.89 66.22,26.28 "/>
   <path class="fil3 str0" d="M66.22 26.28c0,0.5 0.41,0.91 0.91,0.91"/>
   <path class="fil3 str0" d="M67.13 27.19c0.5,0 0.91,-0.41 0.91,-0.91"/>
   <polyline class="fil3 str0" points="68.04,26.28 68.04,24.89 69.43,24.89 "/>
   <path class="fil3 str0" d="M69.43 24.89c0.5,0 0.91,-0.41 0.91,-0.91 0,-0.5 -0.41,-0.92 -0.91,-0.92"/>
   <path class="fil1" d="M50.21 13.5l-1.94 0 0 -1.95c0,-0.7 -0.58,-1.28 -1.28,-1.28 -0.71,0 -1.29,0.58 -1.29,1.28l0 1.95 -1.94 0c-0.71,0 -1.28,0.58 -1.28,1.28 0,0.71 0.57,1.28 1.28,1.28l1.94 0 0 1.95c0,0.7 0.58,1.28 1.29,1.28 0.7,0 1.28,-0.58 1.28,-1.28l0 -1.95 1.94 0c0.71,0 1.29,-0.57 1.29,-1.28 0,-0.7 -0.58,-1.28 -1.29,-1.28z"/>
   <polyline class="fil3 str0" points="50.21,13.5 48.27,13.5 48.27,11.55 "/>
   <path class="fil3 str0" d="M48.27 11.55c0,-0.7 -0.58,-1.28 -1.28,-1.28"/>
   <path class="fil3 str0" d="M46.99 10.27c-0.71,0 -1.29,0.58 -1.29,1.28"/>
   <polyline class="fil3 str0" points="45.7,11.55 45.7,13.5 43.76,13.5 "/>
   <path class="fil3 str0" d="M43.76 13.5c-0.71,0 -1.28,0.58 -1.28,1.28 0,0.71 0.57,1.28 1.28,1.28"/>
   <polyline class="fil3 str0" points="43.76,16.06 45.7,16.06 45.7,18.01 "/>
   <path class="fil3 str0" d="M45.7 18.01c0,0.7 0.58,1.28 1.29,1.28"/>
   <path class="fil3 str0" d="M46.99 19.29c0.7,0 1.28,-0.58 1.28,-1.28"/>
   <polyline class="fil3 str0" points="48.27,18.01 48.27,16.06 50.21,16.06 "/>
   <path class="fil3 str0" d="M50.21 16.06c0.71,0 1.29,-0.57 1.29,-1.28 0,-0.7 -0.58,-1.28 -1.29,-1.28"/>
   <path class="fil5" d="M66.13 12.35c0,-1.2 -0.98,-2.18 -2.18,-2.18 -0.74,0 -1.39,0.37 -1.79,0.93 -0.39,-0.56 -1.04,-0.93 -1.78,-0.93 -1.2,0 -2.18,0.98 -2.18,2.18 0,2.5 3.96,4.66 3.96,4.66 0,0 3.97,-1.96 3.97,-4.66z"/>
   <path class="fil3 str0" d="M66.13 12.35c0,-1.2 -0.98,-2.18 -2.18,-2.18 -0.74,0 -1.39,0.37 -1.79,0.93 -0.39,-0.56 -1.04,-0.93 -1.78,-0.93 -1.2,0 -2.18,0.98 -2.18,2.18 0,2.5 3.96,4.66 3.96,4.66 0,0 3.97,-1.96 3.97,-4.66z"/>
   <path class="fil5" d="M79.56 34.26c0,-1.21 -0.97,-2.19 -2.18,-2.19 -0.74,0 -1.39,0.37 -1.78,0.93 -0.4,-0.56 -1.05,-0.93 -1.78,-0.93 -1.21,0 -2.18,0.98 -2.18,2.19 0,2.49 3.96,4.65 3.96,4.65 0,0 3.96,-1.96 3.96,-4.65z"/>
   <path class="fil3 str0" d="M79.56 34.26c0,-1.21 -0.97,-2.19 -2.18,-2.19 -0.74,0 -1.39,0.37 -1.78,0.93 -0.4,-0.56 -1.05,-0.93 -1.78,-0.93 -1.21,0 -2.18,0.98 -2.18,2.19 0,2.49 3.96,4.65 3.96,4.65 0,0 3.96,-1.96 3.96,-4.65z"/>
  </g>
  <g id="_2685840183888">
   <path class="fil4" d="M72.69 64.73c0.09,-1.98 -0.58,-2.99 -2.3,-2.99 -7.29,0 -19.12,20.71 -5.76,20.71 4.47,0 9.08,-5.31 9.18,-7.1 0.02,-0.65 -0.77,-1.29 -0.79,-0.86 -0.02,0.93 -3.92,6.38 -8.34,6.38 -6.6,0 1.74,-17.14 6.17,-17.14 1.17,0 -1.61,3.78 -1.7,5.93 -0.1,2.1 1.77,2.63 1.79,2.05 0.05,-1.29 1.7,-6.09 1.75,-6.98zm11.5 9.33c-1.27,1.84 -3.35,4.01 -5.22,4.66 0.96,-1.58 1.61,-3.3 1.7,-4.5 0.17,-1.74 -0.96,-4.18 -3.06,-4.18 -1.91,0 -4.28,2.15 -4.83,4.59 -0.93,1.22 -1.98,3.01 -2.08,4.09 -0.12,1.43 1.2,3.78 3.47,3.78 1.36,0 2.72,-1.01 3.82,-2.37 3.16,-0.41 5.53,-3.8 6.6,-5.26 0.17,-0.19 0.07,-1.51 -0.4,-0.81zm-6.67 -3.04c0.83,0 0.93,0.74 0.78,2.63 -0.11,1.12 -0.9,3.3 -1.96,4.97 -0.59,-0.19 -1.12,-0.48 -1.57,-0.83 0.86,-1.25 1.77,-2.49 1.81,-2.92 0.08,-0.86 -1.6,-1.48 -2.29,-1.55 0.81,-1.32 2.17,-2.3 3.23,-2.3zm-3.88 9.92c-0.74,0 -0.31,-0.95 0.41,-2.13 0.43,0.41 0.91,0.72 1.46,0.96 -0.6,0.69 -1.25,1.17 -1.87,1.17zm28.43 -6.81c-1.56,2.27 -4.62,7.05 -5.64,7.05 -0.2,0 -0.24,-0.19 -0.15,-0.53 0.79,-2.31 3.04,-7.84 3.11,-8.65 0.05,-0.74 -1.36,-1.79 -2.15,-1.82 0,0 -0.03,0 -0.05,0 -0.02,0 -0.07,0 -0.09,0.03 -0.12,0.02 -0.2,0.07 -0.24,0.16 -1.17,1.01 -4.38,5.65 -5.57,7.42 0.81,-2.11 1.98,-5.02 2.03,-5.69 0.07,-0.96 -2.51,-2.54 -2.61,-1.39 0,0 0,0.02 0,0.02 -1.07,1.29 -3.8,5.36 -4.85,6.98 0.91,-2.34 1.96,-5.02 2.01,-5.57 0.07,-0.98 -2.51,-2.55 -2.61,-1.41 -0.17,1.92 -3.37,7.7 -3.51,9.4 -0.15,1.7 2.32,2.56 2.67,2.2 0.17,-0.15 0.12,-0.29 0.1,-0.53 0.93,-1.72 3.73,-5.81 5.19,-7.89 -0.74,1.82 -1.65,3.8 -1.72,4.81 -0.17,1.7 2.08,2.56 2.46,2.22 0.12,-0.12 0.12,-0.26 0.12,-0.43 0.64,-1.05 2.84,-3.7 5.04,-6.43 -1,2.41 -2.29,5.19 -2.39,6.26 -0.14,1.61 2.06,2.44 2.58,2.25 2.23,-0.41 5.81,-6.12 6.75,-7.58 0.14,-0.24 0.04,-1.62 -0.48,-0.88zm11.28 -0.07c-1.26,1.84 -3.34,4.01 -5.21,4.66 0.96,-1.58 1.6,-3.3 1.7,-4.5 0.17,-1.74 -0.96,-4.18 -3.06,-4.18 -1.91,0 -4.28,2.15 -4.83,4.59 -0.93,1.22 -1.99,3.01 -2.08,4.09 -0.12,1.43 1.19,3.78 3.47,3.78 1.36,0 2.72,-1.01 3.82,-2.37 3.16,-0.41 5.52,-3.8 6.6,-5.26 0.17,-0.19 0.07,-1.51 -0.41,-0.81zm-6.67 -3.04c0.84,0 0.94,0.74 0.79,2.63 -0.12,1.12 -0.91,3.3 -1.96,4.97 -0.6,-0.19 -1.12,-0.48 -1.58,-0.83 0.86,-1.25 1.77,-2.49 1.82,-2.92 0.07,-0.86 -1.6,-1.48 -2.3,-1.55 0.82,-1.32 2.18,-2.3 3.23,-2.3zm-3.87 9.92c-0.74,0 -0.31,-0.95 0.41,-2.13 0.43,0.41 0.9,0.72 1.45,0.96 -0.59,0.69 -1.24,1.17 -1.86,1.17zm24.41 -6.5c-0.05,0.93 -3.66,6.74 -8.87,6.74 -4.38,0 -2.65,-7.82 5.02,-7.82 0.62,0 0.43,0.31 0.72,0.31 0.31,0 0.86,-0.57 0.88,-1.31 0.05,-0.77 -0.45,-1.46 -1.86,-1.46 -1.22,0 -2.3,0.14 -3.33,0.38 -0.86,-0.43 -0.98,-1.5 -0.95,-2.2 0.09,-1.91 2.56,-4.68 5.64,-4.68 3.08,0 -0.38,4.49 -1.39,4.49 -0.38,0 -0.16,0.74 0.34,0.74 1.6,0 3.61,-2.39 3.73,-5.11 0.07,-1.7 -1.63,-2.75 -3.56,-2.75 -2.68,0 -7.32,3.01 -7.49,6.69 -0.05,1.51 0.6,2.66 1.84,3.45 -6.43,2.79 -6.83,10.54 0.39,10.54 5.47,0 9.61,-5.33 9.68,-7.15 0.02,-0.67 -0.77,-1.31 -0.79,-0.86zm8.37 -0.31c-0.67,1 -1.92,1.79 -3.26,2.53 -0.57,-1.55 -1.81,-3.08 -2.67,-4.59 0.86,-1.53 1.67,-3.3 1.79,-4.83 0.17,-1.72 -0.41,-2.36 -1.1,-2.36 -1.29,0 -4.11,1.84 -4.33,4.32 -0.16,1.87 0.65,3.28 1.53,4.62 -0.12,0.19 -0.26,0.36 -0.36,0.5 -0.21,0.29 0.32,1.08 0.53,0.79 0.1,-0.14 0.24,-0.34 0.38,-0.53 0.72,1.08 1.32,2.2 1.41,3.56 -1.65,0.89 -3.01,1.77 -3.1,2.94 -0.08,0.82 0.76,1.89 1.5,1.89 2.27,0 4.59,-2.51 4.76,-4.4 0.02,-0.38 0,-0.76 -0.1,-1.12 1.53,-0.81 2.97,-1.67 3.57,-2.65 0.14,-0.22 -0.05,-1.44 -0.55,-0.67zm-6.82 -5.02c0.12,-1.2 0.91,-3.21 1.48,-3.21 0.36,0 0.53,0.29 0.44,1.3 -0.1,1.19 -0.75,2.67 -1.49,3.99 -0.31,-0.7 -0.47,-1.39 -0.43,-2.08zm-0.86 12.45c-0.16,0 -0.28,-0.21 -0.26,-0.43 0.05,-0.71 0.79,-1.36 1.82,-2 -0.12,0.9 -0.67,2.43 -1.56,2.43zm15.95 -14.56c-1.01,0 -1.72,0.08 -2.51,0.17 0.43,-1.22 0.69,-2.1 0.72,-2.32 0.09,-0.98 -3.26,-2.96 -3.35,-1.81 -0.12,1.33 -0.46,2.86 -0.89,4.47 -0.47,0 -0.98,0.02 -1.57,0.02 -1.87,0 -2.39,-0.72 -2.66,-0.72 -0.62,0 -0.12,2.73 1.72,2.73 0.46,0 1.15,-0.07 1.94,-0.17 -1.53,4.85 -3.71,9.76 -3.83,10.93 -0.14,1.69 2.35,1.98 2.83,1.98 0.07,0 0.12,-0.02 0.16,-0.02 2.18,-0.24 5.86,-5.79 6.82,-7.27 0.14,-0.24 0.04,-1.63 -0.48,-0.89 -1.58,2.28 -4.85,6.84 -5.86,6.84 -0.24,0 -0.26,-0.24 -0.14,-0.67l0 0c0.74,-2.25 2.7,-7.67 4.02,-11.45 1.48,-0.24 2.79,-0.43 3.32,-0.43 1.6,0 1.41,0.5 1.86,0.5 0.5,0 0.43,-1.89 -2.1,-1.89zm10.23 7.06c-1.27,1.84 -3.35,4.01 -5.21,4.66 0.96,-1.58 1.6,-3.3 1.7,-4.5 0.16,-1.74 -0.96,-4.18 -3.06,-4.18 -1.92,0 -4.28,2.15 -4.83,4.59 -0.93,1.22 -1.99,3.01 -2.08,4.09 -0.12,1.43 1.19,3.78 3.46,3.78 1.37,0 2.73,-1.01 3.83,-2.37 3.16,-0.41 5.52,-3.8 6.6,-5.26 0.16,-0.19 0.07,-1.51 -0.41,-0.81zm-6.67 -3.04c0.84,0 0.93,0.74 0.79,2.63 -0.12,1.12 -0.91,3.3 -1.96,4.97 -0.6,-0.19 -1.12,-0.48 -1.58,-0.83 0.86,-1.25 1.77,-2.49 1.82,-2.92 0.07,-0.86 -1.6,-1.48 -2.3,-1.55 0.82,-1.32 2.18,-2.3 3.23,-2.3zm-3.87 9.92c-0.74,0 -0.31,-0.95 0.4,-2.13 0.43,0.41 0.91,0.72 1.46,0.96 -0.6,0.69 -1.24,1.17 -1.86,1.17zm23.76 -6.81c-1.58,2.27 -4.68,6.88 -5.71,6.88 -0.22,0 -0.24,-0.19 -0.17,-0.52 0.81,-2.32 3.04,-7.87 3.11,-8.68 0.09,-0.96 -2.49,-2.54 -2.58,-1.39 -0.08,0.82 -0.72,2.39 -1.44,4.09 -1.62,2.89 -4.56,6.34 -5.88,6.34 -0.76,0 3.16,-7.77 3.23,-8.75 0.09,-0.96 -2.49,-2.54 -2.61,-1.39 -0.17,1.91 -3.23,7.17 -3.39,8.87 -0.15,1.7 1.67,2.7 2.44,2.7 1.48,0 3.1,-1.6 4.35,-3.2 -0.15,0.45 -0.27,0.81 -0.27,1.07 -0.14,1.6 2.04,2.47 2.59,2.27 2.2,-0.38 5.85,-5.95 6.79,-7.41 0.16,-0.24 0.04,-1.62 -0.46,-0.88z"/>
   <path class="fil4" d="M170.03 85.4l-0.58 0c-0.12,0 -0.22,-0.02 -0.29,-0.05 -0.07,-0.04 -0.12,-0.11 -0.16,-0.22l-0.11 -0.39c-0.14,0.13 -0.27,0.23 -0.4,0.33 -0.13,0.09 -0.27,0.17 -0.41,0.23 -0.13,0.06 -0.28,0.11 -0.44,0.14 -0.16,0.03 -0.33,0.05 -0.52,0.05 -0.23,0 -0.44,-0.04 -0.63,-0.1 -0.19,-0.06 -0.35,-0.15 -0.49,-0.27 -0.14,-0.12 -0.25,-0.27 -0.32,-0.46 -0.08,-0.18 -0.12,-0.39 -0.12,-0.63 0,-0.2 0.05,-0.4 0.16,-0.6 0.11,-0.2 0.28,-0.38 0.53,-0.54 0.25,-0.16 0.58,-0.29 0.99,-0.39 0.41,-0.11 0.92,-0.16 1.53,-0.16l0 -0.32c0,-0.36 -0.08,-0.62 -0.23,-0.8 -0.15,-0.17 -0.37,-0.26 -0.66,-0.26 -0.21,0 -0.38,0.03 -0.52,0.07 -0.14,0.05 -0.26,0.11 -0.36,0.17 -0.11,0.06 -0.2,0.12 -0.29,0.16 -0.09,0.05 -0.18,0.08 -0.29,0.08 -0.08,0 -0.16,-0.03 -0.22,-0.07 -0.06,-0.05 -0.12,-0.1 -0.15,-0.17l-0.24 -0.41c0.62,-0.57 1.36,-0.85 2.23,-0.85 0.32,0 0.6,0.05 0.84,0.15 0.25,0.11 0.46,0.25 0.63,0.43 0.17,0.18 0.3,0.4 0.39,0.66 0.08,0.25 0.13,0.53 0.13,0.83l0 3.39zm-2.51 -0.8c0.13,0 0.25,-0.01 0.37,-0.04 0.11,-0.02 0.21,-0.06 0.31,-0.11 0.1,-0.05 0.2,-0.11 0.29,-0.18 0.09,-0.07 0.18,-0.15 0.28,-0.25l0 -0.9c-0.38,0 -0.69,0.03 -0.94,0.08 -0.26,0.04 -0.46,0.1 -0.61,0.18 -0.16,0.07 -0.26,0.16 -0.33,0.26 -0.06,0.1 -0.1,0.2 -0.1,0.32 0,0.23 0.07,0.39 0.21,0.49 0.13,0.1 0.3,0.15 0.52,0.15zm3.78 2.56l0 -7.12 0.79 0c0.08,0 0.15,0.02 0.21,0.06 0.06,0.04 0.1,0.1 0.12,0.18l0.1 0.5c0.22,-0.25 0.46,-0.45 0.75,-0.6 0.28,-0.16 0.6,-0.23 0.98,-0.23 0.29,0 0.56,0.06 0.8,0.18 0.24,0.12 0.45,0.3 0.63,0.53 0.18,0.23 0.31,0.52 0.41,0.86 0.09,0.34 0.14,0.73 0.14,1.17 0,0.4 -0.05,0.77 -0.16,1.11 -0.11,0.34 -0.26,0.64 -0.46,0.89 -0.2,0.25 -0.45,0.45 -0.73,0.59 -0.28,0.14 -0.6,0.21 -0.95,0.21 -0.31,0 -0.56,-0.05 -0.77,-0.14 -0.21,-0.09 -0.4,-0.22 -0.57,-0.38l0 2.19 -1.29 0zm2.51 -6.19c-0.27,0 -0.5,0.06 -0.69,0.18 -0.19,0.12 -0.37,0.29 -0.53,0.51l0 2.36c0.14,0.18 0.3,0.31 0.48,0.38 0.17,0.07 0.35,0.1 0.55,0.1 0.2,0 0.38,-0.03 0.53,-0.11 0.16,-0.07 0.3,-0.18 0.41,-0.33 0.11,-0.15 0.19,-0.34 0.25,-0.57 0.06,-0.22 0.09,-0.49 0.09,-0.8 0,-0.31 -0.03,-0.58 -0.08,-0.8 -0.05,-0.21 -0.12,-0.39 -0.21,-0.53 -0.1,-0.13 -0.21,-0.23 -0.35,-0.29 -0.13,-0.07 -0.28,-0.1 -0.45,-0.1zm3.4 6.19l0 -7.12 0.79 0c0.08,0 0.15,0.02 0.21,0.06 0.06,0.04 0.1,0.1 0.12,0.18l0.1 0.5c0.22,-0.25 0.46,-0.45 0.74,-0.6 0.29,-0.16 0.61,-0.23 0.99,-0.23 0.29,0 0.56,0.06 0.8,0.18 0.24,0.12 0.45,0.3 0.63,0.53 0.18,0.23 0.31,0.52 0.41,0.86 0.09,0.34 0.14,0.73 0.14,1.17 0,0.4 -0.05,0.77 -0.16,1.11 -0.11,0.34 -0.26,0.64 -0.46,0.89 -0.2,0.25 -0.45,0.45 -0.73,0.59 -0.28,0.14 -0.6,0.21 -0.95,0.21 -0.31,0 -0.56,-0.05 -0.77,-0.14 -0.22,-0.09 -0.41,-0.22 -0.57,-0.38l0 2.19 -1.29 0zm2.5 -6.19c-0.26,0 -0.49,0.06 -0.68,0.18 -0.19,0.12 -0.37,0.29 -0.53,0.51l0 2.36c0.14,0.18 0.3,0.31 0.48,0.38 0.17,0.07 0.35,0.1 0.55,0.1 0.2,0 0.37,-0.03 0.53,-0.11 0.16,-0.07 0.3,-0.18 0.41,-0.33 0.11,-0.15 0.19,-0.34 0.25,-0.57 0.06,-0.22 0.09,-0.49 0.09,-0.8 0,-0.31 -0.03,-0.58 -0.08,-0.8 -0.05,-0.21 -0.12,-0.39 -0.22,-0.53 -0.09,-0.13 -0.2,-0.23 -0.34,-0.29 -0.13,-0.07 -0.28,-0.1 -0.46,-0.1z"/>
  </g>
 </g>
</svg>
